<svg width="31" height="31" viewBox="0 0 31 31" fill="none" xmlns="http://www.w3.org/2000/svg">
<path d="M31 15.5C31 19.6109 29.367 23.5533 26.4602 26.4602C23.5533 29.367 19.6109 31 15.5 31C11.3891 31 7.44666 29.367 4.53985 26.4602C1.63303 23.5533 0 19.6109 0 15.5C0 11.3891 1.63303 7.44666 4.53985 4.53985C7.44666 1.63303 11.3891 0 15.5 0C19.6109 0 23.5533 1.63303 26.4602 4.53985C29.367 7.44666 31 11.3891 31 15.5V15.5ZM16.4688 8.71875C16.4688 8.46182 16.3667 8.21542 16.185 8.03374C16.0033 7.85206 15.7569 7.75 15.5 7.75C15.2431 7.75 14.9967 7.85206 14.815 8.03374C14.6333 8.21542 14.5312 8.46182 14.5312 8.71875V19.9427L10.3734 15.7829C10.1915 15.601 9.94475 15.4988 9.6875 15.4988C9.43025 15.4988 9.18353 15.601 9.00162 15.7829C8.81972 15.9648 8.71753 16.2115 8.71753 16.4688C8.71753 16.726 8.81972 16.9727 9.00162 17.1546L14.8141 22.9671C14.9041 23.0573 15.011 23.1289 15.1287 23.1778C15.2464 23.2266 15.3726 23.2517 15.5 23.2517C15.6274 23.2517 15.7536 23.2266 15.8713 23.1778C15.989 23.1289 16.0959 23.0573 16.1859 22.9671L21.9984 17.1546C22.1803 16.9727 22.2825 16.726 22.2825 16.4688C22.2825 16.2115 22.1803 15.9648 21.9984 15.7829C21.8165 15.601 21.5698 15.4988 21.3125 15.4988C21.0552 15.4988 20.8085 15.601 20.6266 15.7829L16.4688 19.9427V8.71875Z" fill="black"/>
</svg>
